<?xml version="1.0" encoding="UTF-8"?><svg id="Layer_2" xmlns="http://www.w3.org/2000/svg" viewBox="0 0 1135.14303 985.31715"><defs><style>.cls-1{stroke-width:0px;}</style></defs><g id="Layer_1-2"><path class="cls-1" d="m1135.10084,43.05211c-.21772-23.95479-9.72194-35.32456-33.57712-39.85539-22.11342-4.20354-44.51003-3.64857-66.64764-1.81575-27.8965,2.30811-38.56996,9.03491-41.45104,39.93126-2.09208,22.43522-5.90357,49.89991-16.10363,70.02967-35.29325,69.65587-90.36337,107.63574-170.31606,106.85879-66.4285-.64889-337.4133-.52082-406.46723-.91641-14.5886-.08253-27.54903,2.73153-39.12824,11.79952-20.12841,15.76309-32.30182,25.24479-48.25394,38.23317-26.48058,21.56077-43.3887,49.75663-45.80425,83.92856-2.75564,38.9959-2.99897,77.32868,13.94256,115.27726,29.52797,66.13821,99.43926,111.7226,172.00161,108.79407,55.45717-2.24265,102.64955-21.6666,142.11789-60.63404,14.22858-14.05071,42.23892-12.06704,55.26791,2.93992,11.24028,12.9493,9.82582,36.54265-3.81506,49.81924-49.75521,48.41901-108.6603,76.05937-178.74876,79.55141-94.13574,4.69021-169.56543-29.75494-225.64943-105.52401-43.66405-58.98906-57.37156-126.16361-48.10737-197.4356,1.59924-12.30343-9.48999-11.07663-13.31501-9.22389-26.07079,12.6277-50.40836,28.0701-71.95401,47.42006C35.00775,448.76373,2.05818,533.65139,1.00872,631.49689-.11545,736.27525.13358,841.07397.00194,945.86043c-.03194,25.42857-.00686,34.37125,29.08186,35.97914,27.88034,1.54109,159.33121,4.44545,205.107,3.15621v-12.19511c0-86.64934,70.24356-156.89432,156.8929-156.89432s156.89148,70.24499,156.89148,156.89432v10.71804c94.03328-.01138,176.61142-.08823,188.32413-.71719,36.53838-1.96374,43.62065-10.66681,43.53243-46.9647-.31591-127.93057.0845-378.38265-.61758-457.07055-.0976-10.9391.90787-13.8031,11.84221-14.98989,55.26506-6.00506,107.60159-21.64099,156.02345-49.57733,73.84802-42.60463,126.21017-103.82495,158.42263-182.35749,24.82139-60.51451,30.18753-124.21939,29.59841-188.78945Z"/></g></svg>